<mxfile host="app.diagrams.net" modified="2021-07-29T10:06:00.216Z" agent="5.0 (Macintosh; Intel Mac OS X 10_15_7) AppleWebKit/537.36 (KHTML, like Gecko) Chrome/90.0.4430.212 Safari/537.36" etag="2Y4SFKYBKDorUcHpOEwI" version="14.9.0" type="github">
  <diagram name="Page-1" id="aaaa8250-4180-3840-79b5-4cada1eebb92">
    <mxGraphModel dx="2852" dy="372" grid="1" gridSize="10" guides="1" tooltips="1" connect="1" arrows="1" fold="1" page="1" pageScale="1" pageWidth="850" pageHeight="1100" background="none" math="0" shadow="0">
      <root>
        <mxCell id="0" />
        <mxCell id="1" parent="0" />
        <mxCell id="f_ZHOtYkSuHnpotPZDu9-1" value="" style="verticalLabelPosition=bottom;html=1;verticalAlign=top;strokeWidth=1;align=center;outlineConnect=0;dashed=0;outlineConnect=0;shape=mxgraph.aws3d.flatDoubleEdge;fillColor=#000000;aspect=fixed;direction=west;portConstraint=none;flipH=1;flipV=0;" parent="1" vertex="1">
          <mxGeometry x="290" y="2650" width="1281.56" height="730" as="geometry" />
        </mxCell>
        <mxCell id="1a8abee3a6cfdf20-34" value="" style="verticalLabelPosition=bottom;html=1;verticalAlign=top;strokeWidth=1;dashed=0;shape=mxgraph.aws3d.arrowSW;fillColor=#000000;aspect=fixed;rounded=1;shadow=0;comic=0;fontFamily=Verdana;fontSize=12;" parent="1" vertex="1">
          <mxGeometry x="1520.5" y="2395" width="498.41" height="285" as="geometry" />
        </mxCell>
        <mxCell id="DSdjzMmMnyF7UChl1lX--15" value="" style="verticalLabelPosition=bottom;html=1;verticalAlign=top;strokeWidth=1;align=center;outlineConnect=0;dashed=0;outlineConnect=0;shape=mxgraph.aws3d.simpleDb2;aspect=fixed;shadow=0;" parent="1" vertex="1">
          <mxGeometry x="369.5" y="3070" width="254.44" height="270" as="geometry" />
        </mxCell>
        <mxCell id="DSdjzMmMnyF7UChl1lX--16" value="" style="verticalLabelPosition=bottom;html=1;verticalAlign=top;strokeWidth=1;align=center;outlineConnect=0;dashed=0;outlineConnect=0;shape=mxgraph.aws3d.application_server;fillColor=#ECECEC;strokeColor=#5E5E5E;aspect=fixed;shadow=0;" parent="1" vertex="1">
          <mxGeometry x="1186.71" y="2580" width="297.58" height="300" as="geometry" />
        </mxCell>
        <mxCell id="DSdjzMmMnyF7UChl1lX--22" value="" style="verticalLabelPosition=bottom;html=1;verticalAlign=top;strokeWidth=1;align=center;outlineConnect=0;dashed=0;outlineConnect=0;shape=mxgraph.aws3d.arrowNE;fillColor=#000000;aspect=fixed;shadow=0;direction=west;" parent="1" vertex="1">
          <mxGeometry x="659.53" y="2860" width="542.5" height="310" as="geometry" />
        </mxCell>
        <mxCell id="f_ZHOtYkSuHnpotPZDu9-7" value="&lt;span style=&quot;font-size: 37px&quot;&gt;&lt;b&gt;Postgres DB&lt;/b&gt;&lt;/span&gt;" style="text;html=1;strokeColor=none;fillColor=none;align=center;verticalAlign=middle;whiteSpace=wrap;rounded=0;shadow=0;" parent="1" vertex="1">
          <mxGeometry x="320" y="2930" width="328" height="110" as="geometry" />
        </mxCell>
        <mxCell id="f_ZHOtYkSuHnpotPZDu9-10" value="" style="verticalLabelPosition=bottom;html=1;verticalAlign=top;strokeWidth=1;align=center;outlineConnect=0;dashed=0;outlineConnect=0;shape=mxgraph.aws3d.dataServer;strokeColor=#5E5E5E;aspect=fixed;" parent="1" vertex="1">
          <mxGeometry x="2018.91" y="2200" width="232.08" height="200" as="geometry" />
        </mxCell>
        <mxCell id="f_ZHOtYkSuHnpotPZDu9-11" value="" style="verticalLabelPosition=bottom;html=1;verticalAlign=top;strokeWidth=1;align=center;outlineConnect=0;dashed=0;outlineConnect=0;shape=mxgraph.aws3d.client;aspect=fixed;strokeColor=none;fillColor=#777777;" parent="1" vertex="1">
          <mxGeometry x="2088.91" y="2110" width="109.62" height="190" as="geometry" />
        </mxCell>
        <mxCell id="f_ZHOtYkSuHnpotPZDu9-12" value="" style="verticalLabelPosition=bottom;html=1;verticalAlign=top;strokeWidth=1;align=center;outlineConnect=0;dashed=0;outlineConnect=0;shape=mxgraph.aws3d.end_user;strokeColor=none;fillColor=#777777;aspect=fixed;" parent="1" vertex="1">
          <mxGeometry x="2218.91" y="2050" width="112.18" height="230" as="geometry" />
        </mxCell>
        <mxCell id="f_ZHOtYkSuHnpotPZDu9-13" value="&lt;span style=&quot;font-size: 37px&quot;&gt;&lt;b&gt;数据资源化框架&lt;/b&gt;&lt;/span&gt;" style="text;html=1;strokeColor=none;fillColor=none;align=center;verticalAlign=middle;whiteSpace=wrap;rounded=0;shadow=0;" parent="1" vertex="1">
          <mxGeometry x="850" y="2620" width="328" height="110" as="geometry" />
        </mxCell>
        <mxCell id="f_ZHOtYkSuHnpotPZDu9-14" value="&lt;span style=&quot;font-size: 37px&quot;&gt;&lt;b&gt;User&lt;/b&gt;&lt;/span&gt;" style="text;html=1;strokeColor=none;fillColor=none;align=center;verticalAlign=middle;whiteSpace=wrap;rounded=0;shadow=0;" parent="1" vertex="1">
          <mxGeometry x="2018.9099999999999" y="1930" width="328" height="110" as="geometry" />
        </mxCell>
        <mxCell id="f_ZHOtYkSuHnpotPZDu9-17" value="" style="verticalLabelPosition=bottom;html=1;verticalAlign=top;strokeWidth=1;align=center;outlineConnect=0;dashed=0;outlineConnect=0;shape=mxgraph.aws3d.application2;aspect=fixed;fillColor=#4286C5;strokeColor=#57A2D8;" parent="1" vertex="1">
          <mxGeometry x="1247.7600000000002" y="2580" width="175.47" height="150" as="geometry" />
        </mxCell>
        <mxCell id="f_ZHOtYkSuHnpotPZDu9-8" value="" style="verticalLabelPosition=bottom;html=1;verticalAlign=top;strokeWidth=1;align=center;outlineConnect=0;dashed=0;outlineConnect=0;shape=mxgraph.aws3d.application2;fillColor=#86E83A;strokeColor=#B0F373;aspect=fixed;" parent="1" vertex="1">
          <mxGeometry x="1247.7600000000002" y="2530" width="175.47" height="150" as="geometry" />
        </mxCell>
        <mxCell id="f_ZHOtYkSuHnpotPZDu9-18" value="" style="verticalLabelPosition=bottom;html=1;verticalAlign=top;strokeWidth=1;align=center;outlineConnect=0;dashed=0;outlineConnect=0;shape=mxgraph.aws3d.application2;aspect=fixed;fontColor=#000000;fillColor=#7226BF;strokeColor=#9833FF;" parent="1" vertex="1">
          <mxGeometry x="1247.7600000000002" y="2480" width="175.47" height="150" as="geometry" />
        </mxCell>
        <mxCell id="f_ZHOtYkSuHnpotPZDu9-20" value="&lt;span style=&quot;font-size: 37px&quot;&gt;&lt;b&gt;知识沉淀框架&lt;/b&gt;&lt;/span&gt;" style="text;html=1;strokeColor=none;fillColor=none;align=center;verticalAlign=middle;whiteSpace=wrap;rounded=0;shadow=0;" parent="1" vertex="1">
          <mxGeometry x="850" y="2540" width="328" height="110" as="geometry" />
        </mxCell>
        <mxCell id="f_ZHOtYkSuHnpotPZDu9-21" value="&lt;span style=&quot;font-size: 37px&quot;&gt;&lt;b&gt;应用框架&lt;/b&gt;&lt;/span&gt;" style="text;html=1;strokeColor=none;fillColor=none;align=center;verticalAlign=middle;whiteSpace=wrap;rounded=0;shadow=0;" parent="1" vertex="1">
          <mxGeometry x="850" y="2460" width="328" height="110" as="geometry" />
        </mxCell>
      </root>
    </mxGraphModel>
  </diagram>
</mxfile>
